<svg xmlns="http://www.w3.org/2000/svg" viewBox="0 0 960 600" role="img" aria-labelledby="title desc">
  <title id="title">Aura behavioral stress analyzer</title>
  <desc id="desc">Keyboard interaction analysis with stress score rings and keystroke rhythm bars.</desc>
  <rect width="960" height="600" fill="#101214"/>
  <circle cx="480" cy="260" r="126" fill="none" stroke="#25313a" stroke-width="28"/>
  <circle cx="480" cy="260" r="126" fill="none" stroke="#12b8a6" stroke-width="28" stroke-linecap="round" stroke-dasharray="540 252" transform="rotate(-90 480 260)"/>
  <text x="480" y="246" fill="#f1f5f9" font-family="Segoe UI, Arial" font-size="54" font-weight="800" text-anchor="middle">Aura</text>
  <text x="480" y="292" fill="#a9b4c0" font-family="Segoe UI, Arial" font-size="24" text-anchor="middle">Stress: balanced</text>
  <rect x="150" y="438" width="660" height="78" rx="20" fill="#1b2027" stroke="#2d3743"/>
  <g fill="#242b33">
    <rect x="180" y="464" width="46" height="28" rx="8"/><rect x="238" y="464" width="46" height="28" rx="8"/>
    <rect x="296" y="464" width="46" height="28" rx="8"/><rect x="354" y="464" width="46" height="28" rx="8"/>
    <rect x="412" y="464" width="46" height="28" rx="8"/><rect x="470" y="464" width="46" height="28" rx="8"/>
    <rect x="528" y="464" width="46" height="28" rx="8"/><rect x="586" y="464" width="46" height="28" rx="8"/>
    <rect x="644" y="464" width="46" height="28" rx="8"/><rect x="702" y="464" width="46" height="28" rx="8"/>
  </g>
  <g fill="#f59e42">
    <rect x="182" y="414" width="16" height="34" rx="8"/><rect x="250" y="390" width="16" height="58" rx="8"/>
    <rect x="318" y="420" width="16" height="28" rx="8"/><rect x="386" y="372" width="16" height="76" rx="8"/>
    <rect x="454" y="402" width="16" height="46" rx="8"/><rect x="522" y="382" width="16" height="66" rx="8"/>
    <rect x="590" y="426" width="16" height="22" rx="8"/><rect x="658" y="396" width="16" height="52" rx="8"/>
    <rect x="726" y="410" width="16" height="38" rx="8"/>
  </g>
</svg>
