<svg xmlns="http://www.w3.org/2000/svg" viewBox="0 0 960 600" role="img" aria-labelledby="title desc">
  <title id="title">Blood bank platform</title>
  <desc id="desc">A donor matching and inventory dashboard for blood bank operations.</desc>
  <rect width="960" height="600" fill="#121416"/>
  <rect x="94" y="82" width="772" height="436" rx="28" fill="#1b2027" stroke="#2d3743"/>
  <path d="M224 182 C224 126 296 126 296 182 C296 236 224 276 224 336 C224 276 152 236 152 182 C152 126 224 126 224 182Z" fill="#ef4444"/>
  <text x="348" y="166" fill="#f1f5f9" font-family="Segoe UI, Arial" font-size="42" font-weight="800">Hemalink</text>
  <text x="348" y="205" fill="#a9b4c0" font-family="Segoe UI, Arial" font-size="24">Donor matching and live inventory</text>
  <g font-family="Segoe UI, Arial" font-weight="700" font-size="28">
    <rect x="344" y="258" width="112" height="86" rx="18" fill="#2b1719"/><text x="400" y="312" fill="#fecaca" text-anchor="middle">A+</text>
    <rect x="478" y="258" width="112" height="86" rx="18" fill="#172923"/><text x="534" y="312" fill="#99f6e4" text-anchor="middle">B+</text>
    <rect x="612" y="258" width="112" height="86" rx="18" fill="#2b2117"/><text x="668" y="312" fill="#fed7aa" text-anchor="middle">O-</text>
  </g>
  <path d="M344 414 H724" stroke="#2d3743" stroke-width="18" stroke-linecap="round"/>
  <path d="M344 414 H620" stroke="#12b8a6" stroke-width="18" stroke-linecap="round"/>
</svg>
